<?xml version="1.0" encoding="utf-8"?>
<!-- Generator: Adobe Illustrator 23.0.1, SVG Export Plug-In . SVG Version: 6.00 Build 0)  -->
<svg version="1.1" id="Layer_1" xmlns="http://www.w3.org/2000/svg" xmlns:xlink="http://www.w3.org/1999/xlink" x="0px" y="0px"
	 viewBox="0 0 252.9 186.6" style="enable-background:new 0 0 252.9 186.6;" xml:space="preserve">
<style type="text/css">
	.st0{fill:#E2E3E4;}
	.st1{opacity:0.21;enable-background:new    ;}
</style>
<title>barucman_logoAsset 2</title>
<path class="st0" d="M252.8,41c-0.2-0.2-0.3-0.4-0.4-0.5c-13.2-13.2-26.4-26.4-39.7-39.6c-0.7-0.6-1.6-0.9-2.5-0.8
	C154.3,0,98.4,0,42.6,0c-0.2,0-0.4,0-0.6,0c-0.9,0.1-1.8,0.5-2.4,1.2C26.9,14,14.1,26.9,1.3,39.7C0.9,40,0.5,40.5,0,41l0,0l0.1,0.1
	l126.5,145.6L174,132c26.3-30.3,52.6-60.5,78.8-90.7l0.1-0.1L252.8,41z M95,133.6l-6-6.8l0,0l20.4-59.4l7.1-20.6l0.6-1.8H81.4
	L63.5,97.4l-48.6-56l0,0l0.7-0.8l0.2-0.2c0.1-0.1,0.2-0.2,0.3-0.3c9.3-9.3,18.6-18.6,27.9-27.9c0.7-0.7,1.7-1.1,2.7-1.1h10.7l-2,2.3
	l-16,18.2l34.2,0.1l72.4,0.1c3.7-0.1,7.4,0.3,11,1.2c8.3,2.1,12.4,6.9,12.4,14.6c0,7.4-3.2,14-9.5,19.7c-3.8,3.4-9.7,7.1-17.9,11.2
	c-5.9,2.9-9.5,5.8-10.8,8.8c-0.1,0.6-0.2,1.2-0.2,1.8v0.3c0,1.9,1.3,5,4,9.2c2.7,4.2,4,7.8,4,10.8c0,9.4-5.9,16.2-17.8,20.4
	c-5.3,1.7-10.7,2.9-16.2,3.5C101.8,133.3,98.5,133.5,95,133.6z M126.9,170.3l-18-20.7c12.3-0.7,24.4-3.2,35.9-7.4
	c3.6-1.4,7.1-3,10.4-4.9l0.6-0.4C146.2,148.1,136.6,159.2,126.9,170.3L126.9,170.3z M155.9,136.9L155.9,136.9z M238.6,41.8
	l-61.2,70.5l-5.5,6.3c0.2-0.5,0.4-1.1,0.5-1.6c0.7-2.8,1.1-5.6,1.1-8.5c0-7.4-2.5-15.6-7.6-24.7c12.6-6.3,21.9-12.1,28.1-17.4
	c10.3-8.7,15.4-18.1,15.4-28.2c0-12.1-4.7-20.7-14-25.9c-0.8-0.4-1.7-0.9-2.6-1.3h13.6h0.3c0.2,0,0.4,0,0.6,0.1
	c0.4,0.1,0.8,0.3,1.2,0.5c0.1,0,0.2,0.1,0.2,0.2c1.2,1.2,2.4,2.4,3.6,3.6l0,0c3.1,3.1,6.2,6.1,9.3,9.2c5.4,5.4,10.8,10.8,16.2,16.3
	l0,0c0.1,0,0.1,0,0.2,0.1c0.1,0.1,0.1,0.1,0.1,0.2l0.2,0.2C238.4,41.5,238.5,41.6,238.6,41.8L238.6,41.8z"/>
<path class="st1" d="M174,132l-47.5,54.6L0.1,41.1L0,41l0,0c0.5-0.5,0.9-0.9,1.2-1.3C14,26.9,26.8,14.1,39.6,1.3
	C40.2,0.5,41.1,0.1,42,0l11,11l0,0l2.3,2.3l18.3,18.3L87,45l0,0l22.4,22.4l21.5,21.5l35.7,35.7l0,0l1.4,1.4L174,132z"/>
</svg>
